# xmcd CD database file
#
# Track frame offsets:
#	150
#	44162
#	71885
#	97015
#	121440
#	159895
#	183655
#	212931
#	235992
#	267524
#	295005
#	323002
#
# Disc length: 4727 seconds
#
# Revision: 0
# Processed by: cddbd v1.5.2PL0 Copyright (c) Steve Scherf et al.
# Submitted via: CDex 1.51
#
DISCID=bd12750c
DTITLE=Walt Dickerson  - This is Walt Dickerson (1961)
DYEAR=1900
DGENRE=Jazz
TTITLE0=Golden Earrings
TTITLE1=People Will Say We're in Love
TTITLE2=There's No Greater Love
TTITLE3=West Coast Blues
TTITLE4=I've Never Been in Love Before - Don't Blame Me
TTITLE5=I Could Write a Book
TTITLE6=Time
TTITLE7=Elizabeth
TTITLE8=The Cry
TTITLE9=Death and Taxes
TTITLE10=Evelyn
TTITLE11=Infinite You
EXTD=
EXTT0=
EXTT1=
EXTT2=
EXTT3=
EXTT4=
EXTT5=
EXTT6=
EXTT7=
EXTT8=
EXTT9=
EXTT10=
EXTT11=
PLAYORDER=
